HIERARCHY
ROOT Hips
{
    OFFSET 0.0 0.0 0.0
    CHANNELS 6 Xposition Yposition Zposition Zrotation Xrotation Yrotation
    JOINT LeftHipJoint
    {
        OFFSET 0.1 0.0 0.0
        CHANNELS 3 Zrotation Xrotation Yrotation
        JOINT LeftUpLeg
        {
            OFFSET 0.13210687041282654 0.0 0.0
            CHANNELS 3 Zrotation Xrotation Yrotation
            JOINT LeftLeg
            {
                OFFSET 0.0 0.0 -0.42326977849006653
                CHANNELS 3 Zrotation Xrotation Yrotation
                JOINT LeftFoot
                {
                    OFFSET 0.0 0.0 -0.37444639205932617
                    CHANNELS 3 Zrotation Xrotation Yrotation
                    End Site
                    {
                        OFFSET 0.0 -0.1 0.0
                    }
                }
            }
        }
    }
    JOINT LowerBack
    {
        OFFSET 0.0 0.0 0.1
        CHANNELS 3 Zrotation Xrotation Yrotation
        JOINT Spine
        {
            OFFSET 0.0 0.0 0.3378588855266571
            CHANNELS 3 Zrotation Xrotation Yrotation
            JOINT Spine1
            {
                OFFSET 0.0 0.0 0.33649855852127075
                CHANNELS 3 Zrotation Xrotation Yrotation
                JOINT LeftShoulder
                {
                    OFFSET 0.1 0.0 0.0
                    CHANNELS 3 Zrotation Xrotation Yrotation
                    JOINT LeftArm
                    {
                        OFFSET 0.22131669521331787 0.0 0.0
                        CHANNELS 3 Zrotation Xrotation Yrotation
                        JOINT LeftForeArm
                        {
                            OFFSET 0.3353291153907776 0.0 0.0
                            CHANNELS 3 Zrotation Xrotation Yrotation
                            JOINT LeftHand
                            {
                                OFFSET 0.2810766100883484 0.0 0.0
                                CHANNELS 3 Zrotation Xrotation Yrotation
                                End Site
                                {
                                    OFFSET 0.1 0.0 0.0
                                }
                            }
                        }
                    }
                }
                JOINT Neck
                {
                    OFFSET 0.0 0.0 0.1
                    CHANNELS 3 Zrotation Xrotation Yrotation
                    JOINT Neck1
                    {
                        OFFSET 0.0 0.0 0.18472443521022797
                        CHANNELS 3 Zrotation Xrotation Yrotation
                        End Site
                        {
                            OFFSET 0.0 0.0 0.17504727840423584
                        }
                    }
                }
                JOINT RightShoulder
                {
                    OFFSET -0.1 0.0 0.0
                    CHANNELS 3 Zrotation Xrotation Yrotation
                    JOINT RightArm
                    {
                        OFFSET -0.22131669521331787 0.0 0.0
                        CHANNELS 3 Zrotation Xrotation Yrotation
                        JOINT RightForeArm
                        {
                            OFFSET -0.3353291153907776 0.0 0.0
                            CHANNELS 3 Zrotation Xrotation Yrotation
                            JOINT RightHand
                            {
                                OFFSET -0.2810766100883484 0.0 0.0
                                CHANNELS 3 Zrotation Xrotation Yrotation
                                End Site
                                {
                                    OFFSET -0.1 0.0 0.0
                                }
                            }
                        }
                    }
                }
            }
        }
    }
    JOINT RightHipJoint
    {
        OFFSET -0.1 0.0 0.0
        CHANNELS 3 Zrotation Xrotation Yrotation
        JOINT RightUpLeg
        {
            OFFSET -0.13210687041282654 0.0 0.0
            CHANNELS 3 Zrotation Xrotation Yrotation
            JOINT RightLeg
            {
                OFFSET 0.0 0.0 -0.42326977849006653
                CHANNELS 3 Zrotation Xrotation Yrotation
                JOINT RightFoot
                {
                    OFFSET 0.0 0.0 -0.37444639205932617
                    CHANNELS 3 Zrotation Xrotation Yrotation
                    End Site
                    {
                        OFFSET 0.0 -0.1 0.0
                    }
                }
            }
        }
    }
}
MOTION
Frames: 4
Frame Time: 0.03333333333333333
-0.45870277285575867 0.3855585753917694 -0.01084686815738678 -113.66150686558566 80.1830752783341 108.68031615875348 7.951386703658791e-16 -4.9696166897867443e-17 3.4483642953516864e-34 1.702308761339404 11.553623236462498 -39.69274172224738 1.7626870748676995 -1.3808861900019962 1.4977665711365435 0.0 0.0 0.0 7.951386703658791e-16 -4.9696166897867443e-17 3.4483642953516864e-34 -0.6903040204128861 9.612061376171251 -1.0602175013014308 8.091465088060762 3.8701710965268875e-06 -7.864386612644549e-07 7.951386703658791e-16 4.969616689786744e-17 -7.951386703658791e-16 -43.96616647887608 11.426305311569132 74.9760860952894 -27.140862337518662 -3.775100468812382e-06 1.9259835494950075e-06 5.565970692561153e-15 -4.7708320221952736e-15 -1.5902773407317578e-15 7.951386703658791e-16 4.969616689786744e-17 -7.951386703658791e-16 -15.825845355560928 5.5486547207006325 -0.027567394987567426 7.951386703658791e-16 4.969616689786744e-17 -7.951386703658791e-16 38.495159379117666 13.300817854323913 -80.85713586531121 19.859511746820274 -9.331531908575914e-07 -1.3048202745618556e-06 6.361109362927033e-15 -3.1805546814635164e-15 1.7655625192200634e-31 7.951386703658791e-16 -4.9696166897867443e-17 3.4483642953516864e-34 -5.941323144537402 -26.85071800720863 47.15454567531646 46.95198284580214 30.30581962194143 -81.99044753831875 -2.2069531490250793e-32 3.975693351829396e-16 6.3611093629270335e-15
-0.46639591455459595 0.39075931906700134 -0.010976478457450867 -114.77877439992113 79.9153924100546 109.17310219282858 0.0 4.969616689786745e-17 0.0 1.3423044212921544 11.340886934752715 -39.780023674181045 1.6532547863289662 -1.2390357346552734 1.4324369316360672 0.0 0.0 6.361109362927033e-15 0.0 4.969616689786745e-17 0.0 -0.7719612444797618 9.611953894798095 -0.926337109568236 8.351102693412892 1.167086028738489e-06 2.0645146772851316e-07 0.0 0.0 -7.951386703658794e-16 -44.571406411845565 11.322997451260731 74.52240171071452 -27.196595235060325 -1.8438436409512393e-06 -8.387275986478171e-07 -2.3854160110976368e-15 3.180554681463516e-15 -1.590277340731758e-15 0.0 0.0 -7.951386703658794e-16 -17.05846731636643 5.362632912653889 0.18584678915147626 0.0 0.0 -7.951386703658794e-16 35.57011795012367 12.861461940374156 -80.27829517172844 19.8600903788782 -5.524985662751358e-06 3.904961925675578e-06 -9.54166404439055e-15 6.3611093629270335e-15 3.1805546814635176e-15 0.0 4.969616689786745e-17 0.0 -5.884802317283062 -29.04816755502029 48.54019960963402 49.348170828632206 29.907478500808377 -85.32798629686197 0.0 3.975693351829396e-16 0.0
-0.47354599833488464 0.3942022919654846 -0.01093185693025589 -115.68558261047444 79.63847496414381 109.76205744714073 0.0 -6.3611093629270335e-15 0.0 1.194957383347154 11.113935787285195 -39.58275204282987 1.546426440900835 -1.1717694675150987 0.8408019235507572 -1.7655625192200634e-31 6.361109362927035e-15 3.1805546814635176e-15 0.0 -6.3611093629270335e-15 0.0 -0.7925632461221311 9.643326854382543 -1.072260525451469 8.572892513227737 -4.190326652979002e-06 5.424613435212067e-07 -7.951386703658792e-16 -5.517382872562698e-33 7.951386703658792e-16 -45.037448703670655 11.149416970022413 74.17787822084516 -27.012281720025015 2.1900885312011386e-06 1.8715831714636847e-06 -3.975693351829395e-15 3.180554681463516e-15 -1.5902773407317578e-15 -7.951386703658792e-16 -5.517382872562698e-33 7.951386703658792e-16 -17.710497952710796 5.167872852658368 0.36382504451038505 -7.951386703658792e-16 -5.517382872562698e-33 7.951386703658792e-16 32.761555109758696 12.488729458685919 -79.55827923478115 19.810435008537954 -8.555937197545412e-07 8.492421299891946e-07 -1.5902773407317584e-15 -3.1805546814635168e-15 -3.1805546814635168e-15 0.0 -6.3611093629270335e-15 0.0 -5.803466290836116 -30.922604486232828 49.61967007858189 51.2363996517019 29.707492006792855 -87.8303780730026 1.1034765745125397e-32 3.975693351829396e-16 -3.1805546814635168e-15
-0.4775550067424774 0.3958119750022888 -0.0108345877379179 -116.66292296104483 79.33185869767705 110.30642064263755 0.0 -6.3611093629270335e-15 0.0 0.878657381143275 11.003880776888023 -39.18264045754402 1.4508925340209138 -1.1046026091405656 0.47700741368310884 0.0 -6.3611093629270335e-15 0.0 0.0 -6.3611093629270335e-15 0.0 -0.8756436701021709 9.703815060296577 -1.1332921380225687 8.778419403654627 1.495672481018964e-07 6.41664232285849e-07 0.0 4.969616689786745e-17 0.0 -45.56632001087526 10.782377938975634 74.04180619453795 -26.850935969182846 -3.493778571891019e-07 -1.3744548784118005e-06 -7.951386703658792e-16 3.1805546814635168e-15 2.2069531490250793e-32 0.0 4.969616689786745e-17 0.0 -17.831378729448442 4.884296872627023 0.5722160117803743 0.0 4.969616689786745e-17 0.0 30.26658452542571 12.12111553665754 -78.84426376482263 19.841967001264944 2.0693732388179655e-06 -2.914986911016345e-06 4.770832022195277e-15 -3.1805546814635176e-15 3.1805546814635176e-15 0.0 -6.3611093629270335e-15 0.0 -5.234498822773416 -31.677419938905448 50.55833913782629 51.59937854777476 29.58512435075014 -89.24299329043114 3.1805546814635168e-15 -6.3611093629270335e-15 6.3611093629270335e-15
